<!--?xml version="1.0" standalone="no"?-->
              <svg id="sw-js-blob-svg" viewBox="0 0 100 100" xmlns="http://www.w3.org/2000/svg" version="1.1">
                    <defs> 
                        <linearGradient id="sw-gradient" x1="0" x2="1" y1="1" y2="0">
                            <stop id="stop1" stop-color="rgba(7, 75, 190, 1)" offset="0%"></stop>
                            <stop id="stop2" stop-color="rgba(2, 122, 255, 1)" offset="100%"></stop>
                        </linearGradient>
                    </defs>
                <path fill="url(#sw-gradient)" d="M22.9,-40.2C29.2,-35.9,33.6,-29,36,-21.8C38.4,-14.7,38.7,-7.3,38.9,0.1C39,7.5,39,15,35.8,20.7C32.5,26.3,26,30.1,19.5,34.2C13,38.4,6.5,42.9,-0.5,43.8C-7.6,44.7,-15.1,42,-21.7,37.9C-28.3,33.8,-33.9,28.3,-38.3,21.8C-42.7,15.2,-45.8,7.6,-46.1,-0.2C-46.3,-7.9,-43.8,-15.9,-39.2,-22.2C-34.7,-28.5,-28.3,-33.1,-21.4,-37.1C-14.5,-41,-7.3,-44.2,0.5,-45.1C8.3,-45.9,16.5,-44.4,22.9,-40.2Z" width="100%" height="100%" transform="translate(50 50)" stroke-width="0" style="transition: all 0.3s ease 0s;"></path>
              </svg>

